<svg version="1.1" id="Layer_1" xmlns="http://www.w3.org/2000/svg" xmlns:xlink="http://www.w3.org/1999/xlink" x="0px" y="0px"
	 width="100%" viewBox="0 0 512 512" enable-background="new 0 0 512 512" xml:space="preserve">
<path fill="#202022" opacity="1.000000" stroke="none" 
	d="
M331.000000,513.000000 
	C222.193100,513.000000 113.886177,512.980469 5.579370,513.085205 
	C1.979697,513.088684 0.891176,512.512512 0.894062,508.581390 
	C1.017249,340.789093 1.016398,172.996689 0.893931,5.204395 
	C0.891210,1.476099 1.809726,0.911020 5.293660,0.913085 
	C173.085999,1.012572 340.878387,1.010944 508.670746,0.922087 
	C512.051880,0.920297 513.116638,1.338843 513.113647,5.168789 
	C512.982056,173.127701 512.985413,341.086731 513.100037,509.045685 
	C513.102417,512.559814 512.282654,513.097107 508.956024,513.090149 
	C449.804199,512.965881 390.652069,513.000000 331.000000,513.000000 
z"/>
<path fill="#feda70" opacity="1.000000" stroke="none" 
	d="
M88.601318,155.299438 
	C90.276321,155.087952 91.607758,155.005569 92.939194,155.005508 
	C218.771866,155.000214 344.604523,155.001022 470.437195,155.004333 
	C471.603546,155.004364 472.769867,155.043320 474.394775,155.093658 
	C474.945557,157.173981 473.255768,156.963608 472.084717,157.145203 
	C448.195892,160.849518 428.153687,171.657181 411.782318,189.439682 
	C407.813477,193.750641 404.572723,198.545853 401.269531,203.329483 
	C399.975464,205.203613 398.937958,207.477524 395.709595,207.627975 
	C272.617340,207.544342 149.960175,207.654037 27.303026,207.611038 
	C24.138727,207.609940 20.969357,207.744415 17.378262,207.320175 
	C12.576109,205.405060 15.365967,202.906311 16.588425,200.948853 
	C24.160028,188.824799 33.849926,178.722443 45.864025,170.901260 
	C58.803753,162.477478 72.399712,155.868942 88.601318,155.299438 
z"/>
<path fill="#c7ab57" opacity="1.000000" stroke="none" 
	d="
M473.866364,358.482056 
	C472.826691,358.905640 471.828705,358.991852 470.830750,358.991760 
	C343.847046,358.983185 216.863312,358.968231 89.409317,358.906128 
	C57.503757,355.529205 34.242710,339.172852 16.896294,313.502502 
	C15.685323,311.710449 13.093297,309.677734 16.417171,306.967773 
	C19.461521,306.222778 22.136896,306.388977 24.797129,306.388794 
	C146.088806,306.379333 267.380463,306.379822 388.672150,306.383209 
	C390.837555,306.383270 393.004700,306.347687 395.600037,306.619202 
	C398.757874,307.160339 400.274628,309.146484 401.666321,311.250427 
	C418.440308,336.609711 441.828705,351.811005 471.782959,356.941071 
	C472.620422,357.084503 473.375244,357.395996 473.866364,358.482056 
z"/>
<path fill="#feda70" opacity="1.000000" stroke="none" 
	d="
M398.106415,307.621429 
	C270.659454,308.010590 143.366104,308.003601 15.613855,307.990417 
	C13.255440,307.758087 12.290964,306.350983 11.601739,304.858215 
	C6.885046,294.642487 2.261448,284.387817 2.299198,272.411011 
	C2.100852,267.338531 2.069728,262.621918 2.100435,257.441162 
	C4.718503,254.750656 7.848206,255.409943 10.774801,255.406754 
	C53.413540,255.360184 96.052345,255.375687 138.691132,255.375519 
	C217.139832,255.375229 295.588531,255.373260 374.037231,255.383377 
	C377.030701,255.383774 380.036041,255.199036 383.457153,255.856598 
	C386.376526,257.089691 386.355286,259.388672 386.327423,261.508301 
	C386.137604,275.953552 390.330963,289.272522 396.563873,302.088470 
	C397.357422,303.720154 398.308258,305.310791 398.106415,307.621429 
z"/>
<path fill="#c7ab57" opacity="1.000000" stroke="none" 
	d="
M385.020172,256.723267 
	C321.895874,256.958313 259.130890,256.988464 196.365891,256.997406 
	C131.935745,257.006592 67.505592,256.995026 2.618855,256.984802 
	C2.123730,252.276138 2.085193,247.575241 2.094010,242.406677 
	C2.504956,231.356110 5.794289,221.560684 10.185099,212.062286 
	C11.219453,209.824707 11.997791,207.404205 14.772122,206.052246 
	C140.146561,205.990997 265.130066,205.992737 390.113556,206.023087 
	C392.248779,206.023605 394.445770,205.559189 396.815186,206.803192 
	C398.228180,209.022278 397.115082,210.644196 396.356110,212.237671 
	C390.252350,225.053299 385.873962,238.283936 386.327911,252.723953 
	C386.369507,254.047470 386.177826,255.368622 385.020172,256.723267 
z"/>
<path fill="#ffdb70" opacity="1.000000" stroke="none" 
	d="
M384.756653,257.402283 
	C384.054352,239.383438 388.922791,223.200165 397.033386,207.463989 
	C405.929260,193.119080 416.542694,180.841827 430.524628,171.672180 
	C443.896545,162.902603 458.483063,157.604401 474.588196,155.391937 
	C480.950287,155.092224 487.047241,155.061218 493.617218,155.060913 
	C503.835266,157.195663 510.176544,163.445358 511.720703,172.597656 
	C511.927979,177.656876 511.948822,182.402252 511.939026,187.618973 
	C509.607635,198.713531 501.862488,205.665909 491.055542,207.308960 
	C484.494995,208.306412 477.810974,208.208054 471.365265,210.358246 
	C450.289185,217.388885 435.970551,238.240036 437.336395,260.363739 
	C438.670959,281.980682 456.170471,301.466675 477.890686,305.265869 
	C482.463898,306.065796 487.163177,306.114899 491.775574,306.813049 
	C501.893158,308.344513 510.089752,315.953186 511.722046,325.574097 
	C511.928009,330.656860 511.948853,335.402283 511.939056,340.619019 
	C509.804108,350.835541 503.554749,357.176422 494.402374,358.720764 
	C487.654327,358.923035 481.220123,358.938934 474.305267,358.907288 
	C465.473053,357.137909 457.223297,355.169464 449.236267,352.011688 
	C429.993805,344.404022 414.680237,331.965576 402.748779,315.199524 
	C401.211395,313.039185 399.791809,310.795044 398.135254,308.303650 
	C391.762421,296.964386 387.674988,285.122192 385.487305,272.702362 
	C384.636078,267.869904 385.027191,262.818665 384.756653,257.402283 
z"/>
<path fill="#000000" opacity="0.000000" stroke="none" 
	d="
M511.950317,325.448730 
	C507.327209,315.558685 500.610413,308.521240 488.248260,307.679993 
	C483.844910,307.380341 479.239380,307.254242 474.711182,306.150726 
	C456.054352,301.604187 440.397461,284.619476 436.881073,265.872437 
	C431.787201,238.714996 450.726898,212.169281 478.277954,207.197632 
	C483.980530,206.168579 490.126190,206.840973 495.669739,204.884308 
	C503.533936,202.108551 509.038086,196.655853 511.561951,188.202515 
	C511.936737,233.722214 511.965088,279.354126 511.950317,325.448730 
z"/>
<path fill="#000000" opacity="0.000000" stroke="none" 
	d="
M15.196504,205.640076 
	C8.335504,216.894974 4.356781,228.791519 2.486647,241.739075 
	C2.094318,213.949844 2.120395,185.960175 1.912741,157.972244 
	C1.885083,154.244492 4.023808,155.011490 6.039084,155.010559 
	C33.364796,154.997971 60.690521,155.006256 88.480560,155.070618 
	C82.465401,156.818604 75.798820,157.994156 69.540421,160.284836 
	C48.023457,168.160431 30.612650,181.452362 18.038296,200.791840 
	C17.074377,202.274353 16.164789,203.792206 15.196504,205.640076 
z"/>
<path fill="#000000" opacity="0.000000" stroke="none" 
	d="
M2.070699,272.518982 
	C4.017936,279.097870 5.035591,286.388336 7.985490,293.126740 
	C10.095283,297.946075 11.260095,303.229248 15.000286,307.661072 
	C23.653906,323.988342 36.164093,336.052704 51.624210,345.261475 
	C63.062946,352.074890 75.252350,356.673950 88.739151,358.513336 
	C60.949757,358.905701 32.959927,358.879639 4.971831,359.087189 
	C1.243928,359.114838 2.011504,356.975525 2.010576,354.960480 
	C1.997990,327.634583 2.006285,300.308716 2.070699,272.518982 
z"/>
<path fill="#000000" opacity="0.000000" stroke="none" 
	d="
M511.950256,172.449219 
	C508.342682,164.840286 503.547791,158.033005 494.202515,155.438080 
	C499.072845,155.061188 504.060699,155.156616 509.035706,154.946701 
	C511.492371,154.843048 512.136902,155.683350 512.049866,158.033951 
	C511.877991,162.679291 511.995544,167.335327 511.950256,172.449219 
z"/>
<path fill="#000000" opacity="0.000000" stroke="none" 
	d="
M494.550842,358.950317 
	C502.159729,355.342682 508.966980,350.547729 511.561981,341.202515 
	C511.938873,346.072906 511.843414,351.060760 512.053284,356.035736 
	C512.156921,358.492371 511.316681,359.136871 508.966034,359.049866 
	C504.320740,358.877991 499.664703,358.995575 494.550842,358.950317 
z"/>
</svg>