<svg viewBox="0 0 32 32" xmlns="http://www.w3.org/2000/svg">
    <defs>
        <linearGradient id="paint0_linear" x1="1.92667" y1="4.65138e-07" x2="19.7024" y2="29.0178" gradientUnits="userSpaceOnUse">
            <stop offset="0.259336" stop-color="#FFDB6E"/>
            <stop offset="1" stop-color="#FFBC5E"/>
        </linearGradient>
    </defs>
    <path d="m16 1c-1.105469 0-2 .894531-2 2 0 .738281.402344 1.371094 1 1.71875v2.28125h-5c-2.75 0-5 2.25-5 5v2h-3v8h3v5h22v-5h3v-8h-3v-2c0-2.75-2.25-5-5-5h-5v-2.28125c.597656-.347656 1-.980469 1-1.71875 0-1.105469-.894531-2-2-2zm-6 8h12c1.667969 0 3 1.332031 3 3v13h-2v-5h-14v5h-2v-13c0-1.667969 1.332031-3 3-3zm2 4c-1.105469 0-2 .894531-2 2s.894531 2 2 2 2-.894531 2-2-.894531-2-2-2zm8 0c-1.105469 0-2 .894531-2 2s.894531 2 2 2 2-.894531 2-2-.894531-2-2-2zm-16 3h1v4h-1zm23 0h1v4h-1zm-16 6h2v3h-2zm4 0h2v3h-2zm4 0h2v3h-2z" fill="url(#paint0_linear)" />
</svg>
