<?xml version="1.0" encoding="UTF-8"?>
<svg version="1.1" xmlns="http://www.w3.org/2000/svg" width="2100" height="1500">
<path d="M0 0 C32.26421103 30.26111146 53.55807356 70.31872291 60.81933594 113.99511719 C61.15578125 115.94224609 61.15578125 115.94224609 61.49902344 117.92871094 C68.8212047 168.53200476 55.5149751 222.19927124 24.94433594 263.18261719 C22.93437717 265.81275508 20.88847786 268.41134253 18.81933594 270.99511719 C18.33207031 271.60484375 17.84480469 272.21457031 17.34277344 272.84277344 C-15.18347614 313.10922679 -63.63190009 337.72530714 -114.79003906 343.55761719 C-141.24370482 346.04749256 -167.73501445 343.49031387 -193.18066406 335.99511719 C-193.87756348 335.79080078 -194.57446289 335.58648438 -195.29248047 335.37597656 C-220.06226156 327.87899742 -243.60974335 314.90356282 -263.18066406 297.99511719 C-263.97214844 297.31320312 -264.76363281 296.63128906 -265.57910156 295.92871094 C-293.02943218 271.72565918 -312.29561814 242.65237906 -324.18066406 207.99511719 C-324.43187012 207.26615234 -324.68307617 206.5371875 -324.94189453 205.78613281 C-341.39129919 156.97443654 -335.61935681 101.92022374 -313.18066406 55.99511719 C-300.18780531 30.60132946 -281.59614033 7.62018925 -259.18066406 -10.00488281 C-258.24222656 -10.74867188 -257.30378906 -11.49246094 -256.33691406 -12.25878906 C-183.50457205 -68.54722543 -76.15002583 -65.94710119 0 0 Z M-247.18066406 30.99511719 C-248.24414062 31.96384766 -248.24414062 31.96384766 -249.32910156 32.95214844 C-260.73227262 43.71723592 -270.12951467 57.02063381 -277.18066406 70.99511719 C-277.18066406 71.32511719 -277.18066406 71.65511719 -277.18066406 71.99511719 C-276.36984375 72.02089844 -275.55902344 72.04667969 -274.72363281 72.07324219 C-259.0990505 72.87357004 -246.22413864 78.8512692 -235.43066406 90.31933594 C-223.8007585 104.15003961 -217.76005932 119.56664001 -212.45019531 136.67089844 C-212.21134109 137.43935089 -211.97248688 138.20780334 -211.72639465 138.99954224 C-210.53146499 142.85895081 -209.35636036 146.72290116 -208.2121582 150.59765625 C-203.89652421 165.00068781 -198.78491028 177.36593693 -185.18066406 184.99511719 C-174.96072121 175.9458715 -174.0478509 157.35813586 -171.68066406 144.62011719 C-165.43486078 111.13245045 -165.43486078 111.13245045 -158.43066406 97.68261719 C-158.09268799 97.02583984 -157.75471191 96.3690625 -157.40649414 95.69238281 C-149.55662665 80.97455566 -138.00613647 71.27783219 -122.18066406 65.99511719 C-109.96147779 62.98880945 -98.06376505 65.51000477 -86.1015625 68.39208984 C-78.56186271 70.1054421 -72.80866784 70.30911908 -65.79785156 66.80371094 C-51.08864189 55.22762889 -45.12726301 37.69115762 -41.18066406 19.99511719 C-41.18066406 18.67511719 -41.18066406 17.35511719 -41.18066406 15.99511719 C-43.16755519 14.34351394 -44.98587473 13.06560938 -47.18066406 11.74511719 C-47.80787354 11.35670654 -48.43508301 10.9682959 -49.08129883 10.56811523 C-63.65975126 1.71093625 -79.26598624 -5.31496435 -95.74316406 -9.75488281 C-96.4738208 -9.95364014 -97.20447754 -10.15239746 -97.95727539 -10.35717773 C-110.22323384 -13.49391796 -122.56197273 -14.41950943 -135.18066406 -14.37988281 C-136.25899002 -14.37807007 -136.25899002 -14.37807007 -137.35910034 -14.3762207 C-178.92603966 -14.18778406 -217.22756008 2.36503016 -247.18066406 30.99511719 Z M-10.18066406 47.99511719 C-10.60025391 49.15914062 -10.60025391 49.15914062 -11.02832031 50.34667969 C-15.77747346 63.14343319 -21.17419296 74.61446286 -30.18066406 84.99511719 C-31.11652344 86.23068359 -31.11652344 86.23068359 -32.07128906 87.49121094 C-41.3225487 98.47279877 -55.2828637 104.62303407 -69.18066406 106.99511719 C-78.31139561 107.62870573 -86.7239744 106.39006582 -95.61816406 104.43261719 C-97.86474344 103.94233804 -100.11341248 103.46151705 -102.36425781 102.99121094 C-103.33935303 102.77650146 -104.31444824 102.56179199 -105.3190918 102.34057617 C-109.22429127 101.86912687 -112.68419201 102.12493525 -116.12207031 104.12402344 C-130.97330842 117.25752798 -132.75797542 138.78180368 -136.1574707 157.23510742 C-144.53225474 202.36819863 -144.53225474 202.36819863 -161.18066406 214.99511719 C-171.74546992 221.28172692 -181.57979881 223.6441741 -193.86425781 221.53417969 C-205.16037907 218.4616347 -213.97494777 212.15846317 -222.18066406 203.99511719 C-222.79554688 203.41503906 -223.41042969 202.83496094 -224.04394531 202.23730469 C-237.0439674 188.9085464 -241.77762284 169.19787454 -247.18066406 151.99511719 C-253.99726366 127.47950756 -253.99726366 127.47950756 -271.18066406 109.99511719 C-275.16040041 110.46650343 -276.98486756 112.4486738 -279.46972656 115.52636719 C-291.20831009 132.464232 -297.3061645 152.2489268 -293.6887207 172.74023438 C-293.21816116 175.16664051 -292.7113261 177.58117365 -292.18066406 179.99511719 C-292.01679199 180.74164551 -291.85291992 181.48817383 -291.68408203 182.25732422 C-284.17122187 214.99141272 -265.47111941 246.80648097 -239.18066406 267.99511719 C-238.23707031 268.7646875 -237.29347656 269.53425781 -236.32128906 270.32714844 C-210.45443438 291.04721185 -177.55580523 304.88569421 -144.18066406 305.99511719 C-142.89933594 306.04667969 -141.61800781 306.09824219 -140.29785156 306.15136719 C-128.09435208 306.47851664 -116.19530997 305.07426066 -104.18066406 302.99511719 C-103.31715332 302.84913086 -102.45364258 302.70314453 -101.56396484 302.55273438 C-100.74782715 302.39708008 -99.93168945 302.24142578 -99.09082031 302.08105469 C-98.3612915 301.94489746 -97.6317627 301.80874023 -96.88012695 301.66845703 C-96.3193042 301.44625488 -95.75848145 301.22405273 -95.18066406 300.99511719 C-93.89192428 297.12889783 -94.93172854 294.52323697 -95.99316406 290.74511719 C-103.55249809 261.95524391 -101.93252368 231.23570965 -87.05957031 204.99121094 C-79.4291024 192.82370805 -69.66037015 183.07819361 -57.18066406 175.99511719 C-56.36726562 175.53234375 -55.55386719 175.06957031 -54.71582031 174.59277344 C-39.6266038 166.54682168 -23.65707043 164.65066781 -6.80566406 164.80761719 C-5.49855469 164.80826172 -4.19144531 164.80890625 -2.84472656 164.80957031 C4.89106482 164.8441051 12.50606337 165.19067553 20.20849609 165.88061523 C21.07007324 165.91840088 21.93165039 165.95618652 22.81933594 165.99511719 C26.33788789 162.47656524 24.96983366 151.4920329 25.00683594 146.49511719 C24.93871345 112.16855389 14.26985321 74.59034534 -8.18066406 47.99511719 C-8.84066406 47.99511719 -9.50066406 47.99511719 -10.18066406 47.99511719 Z M-50.18066406 217.99511719 C-60.38804345 231.36886733 -64.65903657 247.70991312 -62.92871094 264.4296875 C-62.59373964 266.89691758 -62.21088003 269.35099538 -61.80566406 271.80761719 C-61.67933594 272.63970703 -61.55300781 273.47179688 -61.42285156 274.32910156 C-60.78882116 278.2822811 -60.11469122 281.44973322 -58.18066406 284.99511719 C-53.34479271 283.64574132 -49.6215824 281.50726481 -45.61816406 278.55761719 C-45.01391602 278.11804687 -44.40966797 277.67847656 -43.78710938 277.22558594 C-19.92534607 259.63669638 -1.61330695 238.00636326 11.19042969 211.18261719 C11.52872803 210.47492188 11.86702637 209.76722656 12.21557617 209.03808594 C12.92555425 206.63570155 12.62855425 205.33249423 11.81933594 202.99511719 C-10.06812338 199.87919416 -34.18252393 200.69100644 -50.18066406 217.99511719 Z " fill="#feda70" transform="translate(836.1806640625,752.0048828125)"/>
<path d="M0 0 C28.71 0 57.42 0 87 0 C92.80427958 35.02176803 92.80427958 35.02176803 94.94921875 48.12890625 C95.1743493 49.50461383 95.1743493 49.50461383 95.40402794 50.90811348 C100.15419216 79.95829312 104.79166478 109.02674173 109.4375 138.09375 C109.61152721 139.18252992 109.61152721 139.18252992 109.78907013 140.2933054 C112.79167919 159.0792102 115.79117279 177.86561201 118.78958321 196.65218735 C120.52094034 207.49984936 122.25311224 218.34738104 123.98583984 229.19482422 C124.17037962 230.35010609 124.17037962 230.35010609 124.35864747 231.52872699 C124.97693826 235.3994096 125.59524327 239.27008995 126.21355629 243.140769 C127.42116391 250.70048425 128.6286934 258.26021198 129.83618164 265.81994629 C129.95311398 266.55202476 130.07004633 267.28410323 130.19052207 268.0383659 C131.89362372 278.70108893 133.59628521 289.36388217 135.29858398 300.0267334 C135.40540587 300.69583717 135.51222776 301.36494093 135.62228668 302.05432057 C136.71720855 308.91263886 137.81205623 315.77096898 138.90678406 322.62931824 C139.08396689 323.73879381 139.26114973 324.84826939 139.44370174 325.99136543 C139.78814751 328.14995466 140.13200858 330.30863728 140.47523594 332.46742058 C141.35173455 337.97434767 142.24147691 343.47872618 143.15008545 348.98045349 C143.33663885 350.11945209 143.52319225 351.25845069 143.71539879 352.4319644 C144.07043821 354.59761656 144.4291584 356.76266978 144.79224586 358.92698717 C145.03023934 360.38501104 145.03023934 360.38501104 145.27304077 361.87248993 C145.48420564 363.14461688 145.48420564 363.14461688 145.69963646 364.44244337 C146.03255907 367.27723626 146 370.14572458 146 373 C126.2 373 106.4 373 86 373 C83.50434075 356.60886659 83.50434075 356.60886659 82.4453125 349.63671875 C81.72188346 344.87405567 80.99812731 340.11144387 80.27246094 335.34912109 C79.68762131 331.51086537 79.10421732 327.67239398 78.52182007 323.83376694 C78.29905619 322.36722875 78.07576976 320.90076984 77.85195923 319.43439102 C77.53925704 317.3850145 77.22839197 315.33536731 76.91796875 313.28564453 C76.65149536 311.533582 76.65149536 311.533582 76.37963867 309.74612427 C76 307 76 307 76 305 C41.35 305.495 41.35 305.495 6 306 C2.7 328.11 -0.6 350.22 -4 373 C-22.15 373 -40.3 373 -59 373 C-57.8749986 360.62498465 -57.8749986 360.62498465 -57.19207287 356.35537624 C-56.95983258 354.88615063 -56.95983258 354.88615063 -56.72290057 353.38724369 C-56.55501523 352.34916869 -56.38712988 351.3110937 -56.2141571 350.24156189 C-56.03392606 349.10831201 -55.85369502 347.97506212 -55.66800243 346.80747133 C-55.06691749 343.03375881 -54.46058583 339.26090892 -53.85424805 335.48803711 C-53.41964941 332.76919416 -52.98616431 330.05017395 -52.55262756 327.3311615 C-51.49632238 320.71061692 -50.4361086 314.09070397 -49.37460687 307.47099083 C-48.12669119 299.68767489 -46.8828789 291.90370482 -45.63923869 284.11970479 C-43.40592401 270.14207327 -41.1691917 256.16499084 -38.93041992 242.18823242 C-36.78606248 228.80087318 -34.64362235 215.41320934 -32.50366211 202.02514648 C-32.373214 201.20904507 -32.24276589 200.39294366 -32.10836481 199.55211191 C-31.58311837 196.26607662 -31.05787852 192.98004029 -30.5326479 189.69400247 C-14.6008755 90.02054376 -14.6008755 90.02054376 -7.84228516 48.24658203 C-7.70138293 47.3756805 -7.5604807 46.50477897 -7.41530871 45.60748649 C-4.95447495 30.4032075 -2.47552388 15.20189903 0 0 Z M40 71 C36.47786818 94.56466396 32.95739509 118.1295752 29.43891144 141.69478416 C27.80528101 152.63583395 26.17110224 163.57680132 24.53564453 174.51757812 C23.11063696 184.05050897 21.68664603 193.58359101 20.26388979 203.11685812 C19.51010756 208.16737731 18.75580693 213.21781786 18.00028992 218.26807785 C17.28988337 223.01690611 16.58083141 227.76593461 15.87283897 232.51512337 C15.61211728 234.26237197 15.35089154 236.00954544 15.08913612 237.75663948 C14.73309159 240.13357229 14.37882644 242.51076353 14.02502441 244.88803101 C13.91996881 245.58646696 13.81491321 246.28490292 13.7066741 247.00450361 C13.17953839 250.48745873 13.17953839 250.48745873 13 254 C31.15 254 49.3 254 68 254 C66.27698434 239.33683552 66.27698434 239.33683552 64.23919678 224.72312927 C64.13321419 224.01700438 64.0272316 223.31087948 63.91803741 222.58335686 C63.75352711 221.48780322 63.75352711 221.48780322 63.58569336 220.37011719 C63.35035076 218.78956825 63.11523514 217.20898551 62.88032532 215.62837219 C62.25054099 211.39535016 61.61754815 207.16281398 60.98384547 202.93037701 C60.31793176 198.47941909 59.65483123 194.02804197 58.99134827 189.57672119 C57.87939305 182.11940318 56.76543742 174.66238623 55.65014648 167.20556641 C54.36176575 158.5913721 53.07610218 149.97677574 51.7919721 141.36194682 C50.42023858 132.15957239 49.04660917 122.95748171 47.67238545 113.75547886 C47.27776831 111.11221882 46.88349783 108.46890727 46.48930168 105.82558441 C45.87076617 101.67860708 45.25095487 97.53182236 44.63015556 93.38518333 C44.4027734 91.86507928 44.1758105 90.34491244 43.94929886 88.82467842 C43.63999483 86.74929794 43.32915825 84.67415259 43.01792908 82.59906006 C42.84446425 81.43847958 42.67099943 80.27789909 42.4922781 79.08214951 C42.05918231 76.37053998 41.56178908 73.68749539 41 71 C40.67 71 40.34 71 40 71 Z " fill="#feda70" transform="translate(1624,716)"/>
<path d="M0 0 C0.80304226 -0.00235223 1.60608452 -0.00470446 2.4334614 -0.00712797 C5.14722746 -0.01382991 7.86094577 -0.01335939 10.57471943 -0.01294994 C12.53088797 -0.01624782 14.48705583 -0.01997323 16.44322282 -0.02409142 C21.83674844 -0.03412814 27.23026294 -0.0378309 32.62379658 -0.04048073 C38.43377191 -0.04437882 44.24373839 -0.05395746 50.05370808 -0.0626936 C64.09340286 -0.08247166 78.13309838 -0.09252575 92.17280361 -0.10142139 C98.78004581 -0.10580194 105.38728721 -0.11116933 111.99452877 -0.11641026 C133.9509432 -0.13342359 155.90735714 -0.14794359 177.86377716 -0.155159 C179.28397664 -0.15563376 180.70417612 -0.15610964 182.1243756 -0.15658666 C183.18082113 -0.15694122 183.18082113 -0.15694122 184.258609 -0.15730295 C187.82697658 -0.15850416 191.39534416 -0.1597196 194.96371174 -0.16094494 C195.67186729 -0.16118509 196.38002283 -0.16142524 197.10963764 -0.16167267 C220.07205447 -0.16956638 243.03441965 -0.19299944 265.99681393 -0.22550088 C290.26907826 -0.25979368 314.54131236 -0.27950962 338.81360132 -0.28280324 C352.04668056 -0.28487716 365.27968708 -0.29375469 378.51274395 -0.31926441 C389.78056504 -0.34093519 401.04829181 -0.34903967 412.31613138 -0.33929763 C418.06694876 -0.33474249 423.81757137 -0.33670973 429.56836224 -0.35605907 C434.83199227 -0.37361665 440.09528438 -0.37275329 445.35891763 -0.35716178 C447.26407617 -0.35477444 449.16925766 -0.35916729 451.07438102 -0.37099043 C453.6635648 -0.38606474 456.25154428 -0.3764682 458.84069824 -0.36076355 C459.58088868 -0.37098576 460.32107911 -0.38120796 461.08369955 -0.39173993 C467.39869363 -0.30810425 472.75898369 1.68644219 477.29354572 6.16937733 C477.74858479 6.83840076 478.20362385 7.5074242 478.67245197 8.19672108 C479.14553791 8.86832264 479.61862385 9.5399242 480.10604572 10.23187733 C483.18711453 15.42385141 482.66078512 21.29643579 482.23495197 27.13422108 C479.97916157 33.66414067 475.32223032 38.01253987 469.23495197 41.13422108 C465.48010947 42.40443297 461.69437231 42.27186389 457.77741337 42.25726891 C456.64096831 42.25899967 456.64096831 42.25899967 455.48156476 42.2607654 C452.92837105 42.26342428 450.37523967 42.25891587 447.82204914 42.25447559 C445.97893581 42.25491144 444.13582253 42.25578661 442.29270959 42.25706476 C437.21663719 42.259307 432.14058579 42.2552921 427.06451607 42.2502867 C421.59486929 42.24597853 416.12522375 42.24742888 410.65557575 42.24818897 C401.17526435 42.24871397 391.69495982 42.24556965 382.21465015 42.23995113 C368.50761967 42.23183292 354.80059252 42.22922058 341.09355989 42.22796314 C318.85618362 42.22577313 296.61881055 42.21912299 274.38143635 42.20966053 C252.77661883 42.20047784 231.1718023 42.19339337 209.56698322 42.18915272 C208.90116039 42.18902119 208.23533756 42.18888967 207.54933828 42.18875415 C200.19947827 42.18730482 192.84961826 42.18591297 185.49975824 42.18454468 C130.07815362 42.17417365 74.65655297 42.1565567 19.23495197 42.13422108 C19.23609113 43.07241009 19.23723029 44.01059911 19.23840398 44.97721809 C19.30563598 100.56671695 19.35700258 156.15621204 19.38814796 211.74574339 C19.39190014 218.41861167 19.39577961 225.09147987 19.39974689 231.76434803 C19.40013917 232.4283762 19.40053145 233.09240436 19.40093561 233.7765546 C19.41371809 255.29696443 19.43625085 276.81735062 19.46384364 298.33774613 C19.49295145 321.08108256 19.51094129 343.82440505 19.51721746 366.56775957 C19.52133631 380.19201732 19.53435123 393.8162072 19.55870137 407.44044406 C19.57454413 416.77972553 19.57935563 426.11897184 19.57545611 435.45826577 C19.5735323 440.84866159 19.57650705 446.23893869 19.5925684 451.62931347 C19.60716741 456.56492545 19.60790422 461.50033888 19.59764866 466.43596 C19.59638113 468.22076911 19.6001866 470.00559062 19.60960152 471.79037534 C19.70183676 490.35607976 19.70183676 490.35607976 14.54745197 498.94672108 C9.43464326 503.78316175 4.78726824 505.40253407 -2.26504803 505.69672108 C-9.84131776 505.45090931 -14.02002331 503.02372078 -19.14004803 497.63422108 C-22.47080638 492.50997746 -23.05550498 488.15124176 -23.02231693 482.12307739 C-23.02582301 481.31772744 -23.02932908 480.51237749 -23.0329414 479.682623 C-23.04227546 476.97299522 -23.03732691 474.26358142 -23.03247356 471.55394459 C-23.03620881 469.59604889 -23.04080983 467.63815469 -23.04620421 465.68026286 C-23.05846511 460.29123993 -23.05817011 454.90227893 -23.05581546 449.51324522 C-23.05540807 443.70466342 -23.06643894 437.89610169 -23.0759306 432.08752918 C-23.09255842 420.70417485 -23.09804094 409.32084122 -23.09915535 397.93747576 C-23.10010497 388.68661077 -23.10421092 379.43575262 -23.1105566 370.18488979 C-23.11234561 367.52275573 -23.1141313 364.86062166 -23.11590636 362.19848758 C-23.11634845 361.53668654 -23.11679055 360.8748855 -23.11724604 360.19302988 C-23.12955582 341.5757316 -23.13744703 322.95843565 -23.13655949 304.34113312 C-23.13652833 303.63910632 -23.13649717 302.93707953 -23.13646507 302.21377919 C-23.13629885 298.65555612 -23.13610077 295.09733304 -23.13589565 291.53910997 C-23.13585576 290.8324249 -23.13581587 290.12573984 -23.13577477 289.39764008 C-23.1356939 287.96855037 -23.1356103 286.53946067 -23.13552399 285.11037096 C-23.13429843 262.87521217 -23.14931194 240.64011437 -23.17666912 218.40497303 C-23.20738695 193.42805238 -23.2246018 168.4511718 -23.22274268 143.47423106 C-23.22200135 130.24789309 -23.2276014 117.021621 -23.24909878 103.79529858 C-23.26728333 92.53484026 -23.27168032 81.2744819 -23.25807993 70.01401528 C-23.25153659 64.26723828 -23.25148245 58.52065321 -23.26878643 52.77389431 C-23.28446162 47.51403859 -23.28171033 42.25452788 -23.26421817 36.99468086 C-23.26113602 35.09093055 -23.26482613 33.18715485 -23.27593832 31.28343447 C-23.29004129 28.69616756 -23.27948781 26.11011383 -23.26282597 23.52288818 C-23.27276233 22.78326945 -23.28269868 22.04365071 -23.29293615 21.28161928 C-23.20695209 14.96902106 -21.21107624 9.60841853 -16.72989178 5.07562733 C-16.06086834 4.62058826 -15.3918449 4.1655492 -14.70254803 3.69672108 C-14.03094646 3.22363514 -13.3593449 2.7505492 -12.66739178 2.26312733 C-8.55051397 -0.179948 -4.62756032 -0.00913099 0 0 Z " fill="#feda70" transform="translate(419.7650480270386,593.8657789230347)"/>
<path d="M0 0 C0.80588448 -0.00350607 1.61176896 -0.00701215 2.44207418 -0.01062447 C5.15954148 -0.01997505 7.87679619 -0.01500575 10.59427261 -0.01015663 C12.55543005 -0.01389106 14.516586 -0.01849174 16.47773957 -0.02388728 C21.88042337 -0.03615851 27.28304543 -0.03585196 32.68573999 -0.03349853 C38.50729109 -0.0330914 44.32882211 -0.0441196 50.15036392 -0.05361366 C61.56126093 -0.07024748 72.97213729 -0.07572429 84.38304541 -0.07683842 C93.65634088 -0.07778781 102.92962951 -0.08189267 112.20292282 -0.08823967 C114.87093679 -0.09002866 117.53895076 -0.09181435 120.20696473 -0.09358943 C120.87021924 -0.09403152 121.53347375 -0.09447362 122.21682688 -0.09492911 C140.87734887 -0.10724043 159.53786854 -0.11512995 178.19839478 -0.11424255 C179.25405828 -0.11419582 179.25405828 -0.11419582 180.33104833 -0.11414814 C183.89817878 -0.11398192 187.46530923 -0.11378384 191.03243968 -0.11357872 C192.09513019 -0.11351889 192.09513019 -0.11351889 193.1792892 -0.11345784 C194.61196966 -0.11337697 196.04465012 -0.11329337 197.47733058 -0.11320706 C219.76603218 -0.11198163 242.05467291 -0.12699203 264.34335709 -0.15435219 C289.3777692 -0.18507007 314.41214134 -0.20228483 339.4465735 -0.20042574 C352.70422544 -0.19968438 365.96181166 -0.20528562 379.21944809 -0.22678185 C390.50737893 -0.24496662 401.79521004 -0.24936326 413.08314916 -0.235763 C418.8440959 -0.22921957 424.60485119 -0.22916578 430.36577988 -0.2464695 C435.63862817 -0.26214449 440.9111323 -0.25939358 446.18397191 -0.24190123 C448.09246271 -0.23881903 450.00097884 -0.24250943 451.90943977 -0.25362138 C454.50311333 -0.26772387 457.09557661 -0.25717123 459.68920898 -0.24050903 C460.43071792 -0.25044539 461.17222685 -0.26038175 461.93620574 -0.27061921 C468.25488673 -0.18476027 473.61717977 1.80638703 478.15488052 6.29242516 C478.60991959 6.96144859 479.06495865 7.63047203 479.53378677 8.31976891 C480.00687271 8.99137047 480.47995865 9.66297203 480.96738052 10.35492516 C483.90395713 15.30341238 483.63724382 20.68769706 483.09628677 26.25726891 C481.09883708 33.04859787 476.99034015 36.82348554 471.09628677 40.50726891 C466.03920487 42.40367462 460.75754689 42.40043194 455.42388725 42.38031673 C454.66732627 42.38147058 453.91076529 42.38262442 453.13127822 42.38381323 C450.59376417 42.38646209 448.05631345 42.38197199 445.51880264 42.37752342 C443.6822128 42.37795948 441.84562301 42.37883502 440.00903356 42.38011259 C434.96028295 42.3823508 429.91155352 42.37834543 424.8628056 42.37333453 C419.41909743 42.36902058 413.97539047 42.37047712 408.53168106 42.3712368 C399.09942339 42.37176144 389.66717262 42.36862093 380.23491669 42.36299896 C366.59741638 42.3548758 352.95991941 42.3522679 339.32241695 42.35101097 C317.19707093 42.34882174 295.07172843 42.34217372 272.94638443 42.33270836 C251.452244 42.32352365 229.95810455 42.31644017 208.46396255 42.31220055 C207.80139089 42.31206902 207.13881922 42.31193749 206.45616962 42.31180198 C199.14210012 42.31035263 191.8280306 42.30896079 184.51396108 42.30759251 C129.37473376 42.29722391 74.23551045 42.27960908 19.09628677 42.25726891 C19.09780566 43.20468124 19.09932454 44.15209357 19.10088944 45.12821537 C19.19051293 101.25201036 19.25901923 157.37579878 19.30054809 213.49965096 C19.30553747 220.23518194 19.31072368 226.97071276 19.31601334 233.70624352 C19.31653637 234.37651257 19.31705941 235.04678163 19.31759829 235.73736187 C19.33464606 257.4657681 19.36469305 279.19413276 19.40147566 300.9225138 C19.44027281 323.8826211 19.46426961 346.8427113 19.47264075 369.80285257 C19.47813526 383.55918928 19.49550299 397.31540661 19.52795264 411.07170659 C19.5490604 420.49881623 19.55549529 429.92586395 19.55029228 439.35299552 C19.5477247 444.79583584 19.55172169 450.23846722 19.57310867 455.6812706 C19.59253929 460.66246988 19.59357938 465.64331921 19.57988235 470.62453442 C19.57818889 472.42815339 19.58329254 474.23179398 19.5958195 476.03537024 C19.61184836 478.48525394 19.60323623 480.93387079 19.58847809 483.3837347 C19.59898614 484.08569671 19.6094942 484.78765872 19.62032068 485.5108923 C19.53928541 491.4546444 17.51587225 495.55302632 13.56894302 499.96430016 C6.99495842 505.11786703 1.30114449 506.17787005 -6.90371323 505.25726891 C-13.61642916 503.26496199 -17.24086216 499.29376712 -21.02027184 493.56472707 C-22.31004407 490.19597447 -22.18185233 486.89433149 -22.16377544 483.33793831 C-22.16758112 482.53036546 -22.17138679 481.7227926 -22.17530778 480.89074785 C-22.18566606 478.16754082 -22.1817096 475.44454059 -22.17786789 472.7213192 C-22.182318 470.75603667 -22.18763129 468.79075593 -22.19373661 466.82547784 C-22.20795435 461.41139569 -22.20957919 455.99737084 -22.2091397 450.5832727 C-22.21078459 444.74944918 -22.22384494 438.9156495 -22.23533249 433.08183861 C-22.25820702 420.31954898 -22.26610571 407.55727595 -22.27115893 394.79496861 C-22.27441304 386.82946016 -22.28093378 378.86395656 -22.28816032 370.89845085 C-22.30780949 348.85363886 -22.3242131 326.80883079 -22.32703686 304.76400948 C-22.32713092 304.05875094 -22.32722498 303.35349241 -22.32732189 302.62686241 C-22.32770038 299.7687052 -22.32806437 296.91054799 -22.32842487 294.05239077 C-22.32869659 291.90111968 -22.32897327 289.74984859 -22.32925034 287.5985775 C-22.32933836 286.88771515 -22.32942638 286.17685281 -22.32951707 285.44444918 C-22.33242251 263.10874209 -22.35451758 240.77312154 -22.39077377 218.43744469 C-22.43149512 193.35029347 -22.45519539 168.26320122 -22.45549637 143.17601514 C-22.45597727 129.89040476 -22.46461658 116.60488742 -22.49349403 103.31930351 C-22.51796766 92.00757035 -22.52531795 80.69598918 -22.51024651 69.38423672 C-22.50306126 63.61109697 -22.50400481 57.83825758 -22.5266571 52.06515121 C-22.54719197 46.78113851 -22.5446979 41.49765816 -22.52378226 36.21365157 C-22.52027686 34.30112067 -22.52524158 32.38855179 -22.5394867 30.47607073 C-22.55760158 27.87672217 -22.54489016 25.27925551 -22.52453899 22.67996407 C-22.53710237 21.93685079 -22.54966574 21.19373751 -22.56260982 20.42810565 C-22.46577184 14.65278665 -20.44593568 10.77375985 -16.90371323 6.25726891 C-11.44213232 1.19531587 -7.36055666 -0.04029517 0 0 Z " fill="#feda70" transform="translate(273.90371322631836,448.74273109436035)"/>
<path d="M0 0 C4.84048269 3.03937285 7.00975521 6.76728224 9 12 C9.51455206 14.81623022 9.54119793 17.53843437 9.50615788 20.39590454 C9.51227123 21.2064044 9.51838459 22.01690425 9.52468321 22.85196471 C9.54025364 25.56127624 9.52742927 28.26968882 9.5146637 30.97900391 C9.51999012 32.94361709 9.52705635 34.90822619 9.53571075 36.87282753 C9.55435199 42.26654454 9.54802791 47.65998725 9.53755772 53.05371571 C9.53057003 58.87248445 9.54656034 64.6911966 9.55955505 70.50994873 C9.58120698 81.90695434 9.58106515 93.30386015 9.57292951 104.70087957 C9.56663226 113.96264454 9.56776403 123.22438037 9.57420158 132.48614502 C9.57510324 133.80382327 9.57600489 135.12150151 9.57693387 136.47910941 C9.57831701 138.4848063 9.5797081 140.49050319 9.58112001 142.49620006 C9.59409919 161.14101428 9.59921696 179.78581764 9.5875864 198.43063354 C9.58692945 199.48470096 9.58692945 199.48470096 9.58625922 200.56006266 C9.58265243 206.26649944 9.57881764 211.97293608 9.57496829 217.6793727 C9.56011861 239.94189289 9.56890394 262.20429042 9.59692383 284.46679688 C9.62834839 309.48220477 9.64332302 334.49754006 9.63312382 359.51296806 C9.63208704 362.17993036 9.63110664 364.84689266 9.6301403 367.51385498 C9.62966391 368.82608587 9.62918752 370.13831676 9.6286967 371.49031222 C9.626531 380.74203884 9.63634486 389.9937084 9.65091133 399.24542236 C9.66841284 410.51864443 9.66834845 421.79169973 9.64555968 433.06491518 C9.63439814 438.81782101 9.63129857 444.5704328 9.64986038 450.32332611 C9.66663078 455.58869123 9.66036042 460.85350507 9.63564359 466.11883426 C9.63074867 468.02450977 9.63430754 469.93022946 9.64713103 471.83586812 C9.66330375 474.42594198 9.64867769 477.01410743 9.62641239 479.60409546 C9.63840407 480.344461 9.65039575 481.08482654 9.66275081 481.8476274 C9.55021724 488.25595763 6.93443962 493.02823767 2.45117739 497.56852186 C-2.50279612 501.87126182 -6.50147197 502.14699946 -12.79628277 502.13701439 C-13.60270178 502.13966622 -14.40912079 502.14231804 -15.23997673 502.14505023 C-17.96522779 502.15276164 -20.69043393 502.1533031 -23.41569519 502.15390015 C-25.38011348 502.15791355 -27.34453093 502.16235157 -29.30894738 502.1671797 C-34.72527453 502.17916456 -40.14159277 502.18479807 -45.55793059 502.18936086 C-51.39244716 502.19530966 -57.22695304 502.20692124 -63.0614624 502.21765137 C-77.1604805 502.24219104 -91.25950214 502.25680435 -105.35853502 502.26971143 C-109.33892105 502.27342207 -113.31930672 502.2773954 -117.29969239 502.2814641 C-142.00350077 502.30669811 -166.70730962 502.32877305 -191.41112804 502.34119225 C-197.13516937 502.34411361 -202.85921067 502.34708112 -208.58325195 502.35009766 C-209.29439719 502.35046857 -210.00554242 502.35083947 -210.73823751 502.35122162 C-233.79767061 502.3633784 -256.8570274 502.39432453 -279.91642465 502.43601918 C-303.61930865 502.47879923 -327.32215234 502.50543226 -351.02507599 502.51066696 C-364.98589452 502.51375523 -378.94661727 502.52466229 -392.90740013 502.55921555 C-404.22281081 502.58717514 -415.53807644 502.59823331 -426.85351899 502.58702008 C-432.62868176 502.58182311 -438.40354055 502.58478795 -444.17865944 502.60948563 C-449.46455463 502.63190282 -454.74992616 502.6312967 -460.03583006 502.61228175 C-461.94906699 502.60947119 -463.86233886 502.61513861 -465.77551939 502.63009469 C-468.37582148 502.64918095 -470.9742523 502.6374263 -473.57451153 502.61803246 C-474.31791065 502.63088168 -475.06130978 502.6437309 -475.82723615 502.65696949 C-481.60904003 502.56217168 -485.47284258 500.53466709 -490 497 C-495.26016544 491.46298375 -496.47317687 486.24658849 -496.3125 478.78515625 C-495.67152988 473.07251005 -493.30807345 468.88636362 -489 465.125 C-483.9677414 461.56048349 -480.65481378 460.70831592 -474.49560928 460.75390434 C-473.73291412 460.75159665 -472.97021896 460.74928897 -472.18441182 460.74691135 C-469.61392298 460.7415932 -467.04368177 460.75061045 -464.47320557 460.75949097 C-462.61771738 460.75861927 -460.76222944 460.75686896 -458.90674281 460.75431263 C-453.79644224 460.74982803 -448.68622507 460.75785806 -443.57593513 460.76786876 C-438.06947817 460.77648495 -432.56302613 460.7735844 -427.05656433 460.77206421 C-417.51240164 460.7710142 -407.96826624 460.77730294 -398.42411041 460.78853989 C-384.62477148 460.80477618 -370.82544579 460.81000097 -357.02609834 460.81251587 C-334.63897365 460.81689591 -312.25186226 460.83019625 -289.86474609 460.84912109 C-268.11442134 460.86748642 -246.36410048 460.88165538 -224.61376953 460.89013672 C-223.94346453 460.89039977 -223.27315953 460.89066282 -222.58254226 460.89093385 C-215.8511342 460.89357086 -209.11972611 460.89612249 -202.388318 460.89861157 C-145.9255351 460.91949781 -89.46276833 460.9547941 -33 461 C-33.00075944 460.06354723 -33.00151888 459.12709447 -33.00230134 458.16226435 C-33.04711811 402.6813787 -33.08136478 347.20049474 -33.10213066 291.71959463 C-33.10463212 285.06045889 -33.10721844 278.40132318 -33.10986328 271.7421875 C-33.1101248 271.07952342 -33.11038632 270.41685933 -33.11065576 269.73411452 C-33.11917847 248.25522374 -33.1342011 226.77634348 -33.15259444 205.29745907 C-33.17199649 182.59941989 -33.18399219 159.90138726 -33.18817699 137.20334005 C-33.19092353 123.60519886 -33.19960361 110.00708788 -33.21583293 96.40895599 C-33.22639097 87.08884186 -33.2296033 77.76874339 -33.22700275 68.44862372 C-33.22571963 63.06850398 -33.22771014 57.6884371 -33.23841095 52.30832672 C-33.24813523 47.3832878 -33.2486402 42.45833735 -33.24179779 37.53329438 C-33.24095196 35.75119705 -33.24349595 33.96909422 -33.24976636 32.18700773 C-33.25779625 29.76406225 -33.25346372 27.34143582 -33.24609566 24.91849518 C-33.2539767 23.88152528 -33.2539767 23.88152528 -33.26201695 22.82360649 C-33.21037922 15.30510969 -31.75408729 8.97656688 -27 3 C-19.0528188 -4.33585957 -9.40469968 -5.16336453 0 0 Z " fill="#feda70" transform="translate(995,699)"/>
<path d="M0 0 C16.18545705 14.96719684 24.39951037 38.03236444 25.54942322 59.6547699 C25.6036278 62.9968932 25.60081913 66.3333835 25.5703125 69.67578125 C25.56829834 70.74389038 25.56628418 71.81199951 25.56420898 72.91247559 C25.55387953 76.83752849 25.52595902 80.76251935 25.5 84.6875 C25.45875 93.494375 25.4175 102.30125 25.375 111.375 C6.895 111.375 -11.585 111.375 -30.625 111.375 C-30.875 86.6875 -30.875 86.6875 -30.92285156 78.9777832 C-30.81012422 58.32159359 -30.81012422 58.32159359 -40.76171875 40.89453125 C-47.80187815 35.15318533 -56.9117239 34.74343368 -65.625 35.375 C-72.55647937 36.56210387 -78.0292076 38.94583725 -82.625 44.375 C-87.73491131 52.11195036 -88.92636744 60.56858059 -88.89242554 69.63957214 C-88.89695665 70.53970026 -88.90148776 71.43982837 -88.90615618 72.3672331 C-88.91875849 75.366213 -88.9171825 78.36501032 -88.91552734 81.36401367 C-88.92151525 83.52141553 -88.9283214 85.67881524 -88.93588257 87.83621216 C-88.95352445 93.6856098 -88.95823723 99.53494889 -88.95951414 105.38437057 C-88.96093749 109.04293343 -88.9652106 112.70148149 -88.97050858 116.36004066 C-88.98900388 129.13530036 -88.99717994 141.91051837 -88.99560547 154.68579102 C-88.99440468 166.57479443 -89.01549618 178.46361613 -89.0470928 190.35257357 C-89.07328849 200.57536741 -89.08397136 210.79810203 -89.08269465 221.02092916 C-89.08218593 227.11959527 -89.08781949 233.21809987 -89.10905075 239.31673241 C-89.12848815 245.0566654 -89.12851986 250.79628376 -89.11401749 256.53622818 C-89.11193503 258.63516642 -89.11659646 260.73412464 -89.1287384 262.83302879 C-89.5936166 282.85594544 -89.5936166 282.85594544 -80.44921875 300.01171875 C-72.53409556 305.92687505 -63.07671252 306.99150326 -53.5625 305.75 C-46.57050469 304.40675408 -41.33460944 301.82905218 -36.8125 296.25 C-31.1699119 287.12879615 -31.16043868 276.7030289 -31.11328125 266.30078125 C-31.09639495 264.88159168 -31.07823955 263.4624167 -31.05888367 262.04325867 C-31.01180532 258.34612595 -30.98172559 254.6490524 -30.95544434 250.95172119 C-30.92012546 246.49517586 -30.86323549 242.0388577 -30.81005096 237.58249664 C-30.73203266 230.84669525 -30.6810543 224.11118095 -30.625 217.375 C-12.145 217.375 6.335 217.375 25.375 217.375 C25.53543524 233.79287262 25.53543524 233.79287262 25.5703125 240.92578125 C25.593996 245.74611571 25.62164978 250.56613939 25.67675781 255.38623047 C26.02299637 286.50918256 24.50167856 315.91191626 1.94140625 339.9609375 C-18.67293389 359.35159535 -45.15136284 362.29200702 -72.22705078 361.54980469 C-93.80348954 360.43982264 -113.31121657 352.34151685 -128.375 336.6875 C-148.19492523 313.42063125 -149.77899486 283.34919215 -149.77026367 254.19873047 C-149.77326131 252.18825723 -149.77666522 250.17778455 -149.78044128 248.16731262 C-149.78922454 242.73929077 -149.79161701 237.31128471 -149.79225707 231.88325644 C-149.79297087 228.48208677 -149.79511142 225.08092104 -149.79775429 221.67975235 C-149.80698937 209.78584796 -149.81109153 197.89195473 -149.81030273 185.99804688 C-149.80970264 174.95719355 -149.8202459 163.91638919 -149.8360464 152.87554824 C-149.8491752 143.35829277 -149.85448439 133.8410532 -149.85384732 124.32378876 C-149.85359388 118.65653452 -149.8563595 112.98932383 -149.86702538 107.3220787 C-149.87679658 101.98513567 -149.87672454 96.64827703 -149.86950874 91.3113308 C-149.86847397 89.36810493 -149.87075869 87.42487356 -149.8768692 85.48165703 C-149.92261421 69.90823571 -149.7169827 53.79183601 -145.5 38.6875 C-145.18240723 37.52734375 -145.18240723 37.52734375 -144.85839844 36.34375 C-139.37856585 17.50730717 -128.39942766 1.4728882 -111.26953125 -8.59765625 C-77.11219719 -26.45348793 -30.33278155 -24.85095356 0 0 Z " fill="#feda70" transform="translate(1972.625,731.625)"/>
<path d="M0 0 C0.80988054 -0.00495952 1.61976108 -0.00991903 2.45418346 -0.01502883 C5.17329227 -0.02800237 7.89191144 -0.01959471 10.61103249 -0.01129913 C12.5780426 -0.0161872 14.54504984 -0.02237661 16.51205218 -0.02975702 C21.9216449 -0.0461903 27.33109221 -0.0438317 32.7407012 -0.03838205 C38.57313237 -0.03571604 44.40552441 -0.05023557 50.23793983 -0.06247711 C61.66594988 -0.08355129 73.09390922 -0.08807083 84.5219364 -0.08628923 C93.80901264 -0.08498262 103.09607303 -0.08878054 112.38314629 -0.09621429 C113.71721152 -0.09726463 115.05127677 -0.09831224 116.38534201 -0.09935716 C117.0475623 -0.0998765 117.7097826 -0.10039585 118.39207017 -0.10093093 C119.05549936 -0.10145107 119.71892855 -0.10197121 120.40246165 -0.10250711 C121.39926596 -0.1032931 121.39926596 -0.1032931 122.41620773 -0.10409497 C141.1081705 -0.11867934 159.80012761 -0.12696028 178.49209595 -0.12234497 C179.19682245 -0.12217302 179.90154895 -0.12200106 180.6276308 -0.1218239 C184.19949616 -0.120935 187.7713615 -0.11999019 191.34322684 -0.11902589 C192.40730974 -0.11873934 192.40730974 -0.11873934 193.49288927 -0.118447 C194.92744549 -0.11805991 196.3620017 -0.11766958 197.79655792 -0.11727602 C220.11916804 -0.11130575 242.4416745 -0.12674499 264.76426125 -0.15888214 C289.84190961 -0.19495502 314.91949224 -0.21429235 339.99716818 -0.20934343 C353.27603671 -0.20700932 366.55481961 -0.21237074 379.83366966 -0.23723602 C391.13804143 -0.25822342 402.44225408 -0.26186649 413.74663232 -0.24293643 C419.5157308 -0.23376298 425.28453239 -0.2326851 431.05360794 -0.25329208 C436.33384791 -0.2719446 441.61354665 -0.26756265 446.89376564 -0.24474627 C448.80488768 -0.24054606 450.71605075 -0.24480799 452.62712948 -0.25834221 C455.22456292 -0.27548577 457.82010315 -0.26181748 460.41746521 -0.24050903 C461.53127758 -0.25892532 461.53127758 -0.25892532 462.66759121 -0.27771366 C468.40441432 -0.17935141 472.40077971 1.7674006 476.83457375 5.38311005 C481.67340196 10.87078761 483.23610038 15.64986518 483.104105 22.94561005 C482.52374663 28.19406828 480.72830284 32.56558736 476.8931675 36.2463913 C471.42525448 40.46564646 467.32148752 41.53148245 460.45323086 41.50615788 C459.69168954 41.50731172 458.93014822 41.50846556 458.1455299 41.50965437 C455.57300964 41.5123183 453.00055095 41.50780068 450.42803383 41.50336456 C448.57340915 41.50380031 446.71878453 41.50467528 444.86416024 41.50595373 C439.75162384 41.508198 434.63910824 41.50417831 429.52657449 41.49917567 C424.01941831 41.49487039 418.51226336 41.49631765 413.00510597 41.49707794 C403.45820588 41.49760313 393.9113126 41.49445688 384.36441422 41.4888401 C370.56108047 41.48072438 356.75775003 41.47810981 342.95441415 41.47685211 C320.56119405 41.47466171 298.16797727 41.4680105 275.77475929 41.4585495 C254.01759803 41.44936783 232.26043773 41.44228286 210.50327492 41.43804169 C209.83283839 41.43791016 209.16240187 41.43777863 208.47164908 41.43764312 C201.73896138 41.43632462 195.00627368 41.43504881 188.27358596 41.43380426 C131.79391267 41.42335995 75.3142434 41.40571071 18.83457375 41.38311005 C18.83609263 42.33014266 18.83761151 43.27717527 18.83917642 44.25290585 C18.92880911 100.36006261 18.99731083 156.46721278 19.03883506 212.57442677 C19.04382441 219.30866898 19.04901063 226.04291103 19.05430031 232.77715302 C19.05482334 233.44729131 19.05534638 234.11742961 19.05588527 234.80787513 C19.07293089 256.5292916 19.10297629 278.25066646 19.13976263 299.97205772 C19.17856615 322.92623459 19.20255798 345.88039435 19.21092772 368.83460522 C19.21642094 382.58633265 19.23378169 396.3379406 19.26623961 410.08963126 C19.28735503 419.51487926 19.29378052 428.94006534 19.28857926 438.36533529 C19.28601287 443.8062743 19.28999511 449.24700426 19.31139565 454.68790627 C19.33084303 459.66854102 19.33185539 464.64882589 19.31816933 469.62947667 C19.31647751 471.43176755 19.32156697 473.23408015 19.33410648 475.0363282 C19.35016559 477.48682187 19.34150468 479.93605349 19.32676506 482.38652802 C19.34252714 483.43553051 19.34252714 483.43553051 19.35860765 484.50572497 C19.27412542 490.72342492 17.1633716 496.02749302 12.7994175 500.4417038 C12.13039406 500.89674286 11.46137062 501.35178192 10.77207375 501.82061005 C9.7646714 502.53023895 9.7646714 502.53023895 8.7369175 503.2542038 C3.78843027 506.1907804 -1.59585441 505.92406709 -7.16542625 505.38311005 C-13.87693813 503.40913596 -17.50813036 499.40909745 -21.28233403 493.69091737 C-22.57225108 490.3199444 -22.44067627 487.0165291 -22.41990185 483.45819283 C-22.42310833 482.65002078 -22.4263148 481.84184873 -22.42961845 481.00918663 C-22.4379616 478.28395396 -22.43197912 475.5589386 -22.42612267 472.83370209 C-22.42914138 470.86699477 -22.43302945 468.90028862 -22.43771523 466.93358457 C-22.44804007 461.51563485 -22.44580203 456.09775097 -22.44153464 450.67979574 C-22.43907552 444.84192526 -22.44807143 439.00407098 -22.45557213 433.16620636 C-22.46834396 421.72389321 -22.47010972 410.28160351 -22.46777187 398.83928443 C-22.46599129 389.54165861 -22.46773275 380.24403992 -22.47199631 370.94641495 C-22.4725987 369.61149271 -22.4731999 368.27657047 -22.47379991 366.94164824 C-22.47470715 364.9301395 -22.47561581 362.91863076 -22.47653226 360.90712203 C-22.48496432 342.20015645 -22.48929576 323.49319348 -22.48512554 304.78622627 C-22.48496917 304.0807173 -22.48481279 303.37520833 -22.48465167 302.64832031 C-22.48384587 299.07237737 -22.4830001 295.49643445 -22.48213837 291.92049153 C-22.48196729 291.21027585 -22.4817962 290.50006018 -22.48161993 289.76832281 C-22.48127327 288.33209339 -22.48092474 286.89586397 -22.48057434 285.45963456 C-22.4752168 263.11054307 -22.48314743 240.76149104 -22.50160789 218.41240692 C-22.52231591 193.3128259 -22.53305288 168.21326933 -22.52903241 143.11367929 C-22.52863705 140.43826509 -22.52827551 137.76285088 -22.52793503 135.08743668 C-22.52776719 133.7709803 -22.52759935 132.45452393 -22.52742643 131.09817494 C-22.52698804 121.81000222 -22.53389002 112.52185151 -22.54374695 103.23368454 C-22.55563493 91.91679563 -22.55709475 80.59996478 -22.54495678 69.28307511 C-22.53904986 63.50620611 -22.53801858 57.72944345 -22.54995918 51.95258141 C-22.56075646 46.6675508 -22.55778838 41.38271612 -22.5436975 36.09769492 C-22.54103351 34.1825119 -22.54347001 32.26731382 -22.55143336 30.35214551 C-22.56148772 27.75442822 -22.55316189 25.1573988 -22.54015636 22.55970955 C-22.54746571 21.81134225 -22.55477506 21.06297494 -22.5623059 20.29192984 C-22.49850621 14.16906719 -20.80946721 10.29375224 -16.85292625 5.69561005 C-11.52386425 1.11013809 -6.90854254 -0.05965087 0 0 Z " fill="#feda70" transform="translate(124.16542625427246,298.6168899536133)"/>
<path d="M0 0 C7.11992495 6.1569423 12.3783516 12.82597917 17 21 C17.67482422 22.11375 17.67482422 22.11375 18.36328125 23.25 C29.35298508 42.8477381 29 67.51854467 29 89 C10.52 89 -7.96 89 -27 89 C-27.8125 75.625 -27.8125 75.625 -28.04614258 71.47119141 C-28.77094974 60.53808923 -30.15426386 50.84573614 -38.1875 42.8125 C-46.40654809 37.51578012 -55.46506326 36.63102116 -64.96484375 38.62109375 C-71.7648974 40.71987574 -76.31145867 43.85594401 -80 50 C-81.38552555 53.27907713 -82.27952162 56.51864845 -83 60 C-83.226875 61.093125 -83.45375 62.18625 -83.6875 63.3125 C-85.621649 86.13545819 -78.73241604 105.76648144 -64.2734375 123.35546875 C-56.76017047 132.09512817 -48.99000487 140.72077912 -40.26171875 148.265625 C-33.32409773 154.31350189 -26.66002507 160.64967293 -20 167 C-19.31244629 167.65210449 -18.62489258 168.30420898 -17.91650391 168.97607422 C6.90103285 192.63683637 27.81107888 222.88511496 29.12426758 258.35668945 C29.20726344 262.38442982 29.24659245 266.40902418 29.25 270.4375 C29.25067474 271.15275848 29.25134949 271.86801697 29.25204468 272.60494995 C29.21222549 299.16435055 23.16378188 324.41472732 4 344 C-17.38703993 362.59606258 -44.74417695 365.6321569 -72 364 C-94.32964102 361.60519521 -113.28405256 352.54390057 -128.125 335.5 C-143.99892533 314.74178996 -146.40688376 288.22485466 -146.125 263 C-146.063125 255.08 -146.063125 255.08 -146 247 C-127.52 247 -109.04 247 -90 247 C-89.625 260.625 -89.625 260.625 -89.52197266 264.82666016 C-89.20405456 284.7015685 -89.20405456 284.7015685 -80.328125 301.875 C-74.27144174 307.44929256 -68.10181291 308.34579221 -60.125 308.3125 C-59.36058594 308.32861328 -58.59617187 308.34472656 -57.80859375 308.36132812 C-51.19217762 308.36694478 -46.07986751 306.79062064 -40.3125 303.4375 C-31.83102752 294.49756955 -30.5454736 282.43427109 -30.75 270.6484375 C-32.71296515 242.0014149 -52.0624177 218.7278145 -72.80981445 200.40136719 C-73.4462085 199.85125977 -74.08260254 199.30115234 -74.73828125 198.734375 C-81.67590227 192.68649811 -88.33997493 186.35032707 -95 180 C-96.03133057 179.02184326 -96.03133057 179.02184326 -97.08349609 178.02392578 C-122.06595825 154.2059256 -142.45168823 124.23538186 -144.16113281 88.64526367 C-144.20725594 84.825893 -144.24666748 81.00713699 -144.25 77.1875 C-144.25067474 76.49503174 -144.25134949 75.80256348 -144.25204468 75.08911133 C-144.21138466 48.8082977 -138.6582283 23.70852592 -120 4 C-90.45820596 -24.81874314 -31.77503489 -25.35674904 0 0 Z " fill="#feda70" transform="translate(1286,729)"/>
<path d="M0 0 C59.73 0 119.46 0 181 0 C181 17.82 181 35.64 181 54 C160.87 54 140.74 54 120 54 C120 159.27 120 264.54 120 373 C100.53 373 81.06 373 61 373 C61 267.73 61 162.46 61 54 C40.87 54 20.74 54 0 54 C0 36.18 0 18.36 0 0 Z " fill="#feda70" transform="translate(1363,716)"/>
</svg>